<svg xmlns="http://www.w3.org/2000/svg" version="1.1" viewBox="0 0 239.71 181.61">
      <path d="M239.71,96.93c0-9.86-12.41-18.81-32.64-25.46,10.88-5.86,17.22-12.88,17.22-20.42,0-8.02-7.15-15.44-19.3-21.5C204.24,13.34,167.06.28,121.28.28S40.52,12.58,37.72,28.12c-13.97,6.31-22.3,14.27-22.3,22.93,0,7.54,6.34,14.56,17.22,20.42C12.41,78.12,0,87.07,0,96.93c0,11.82,17.85,22.35,45.65,29.15-6.9,5.36-10.85,11.55-10.85,18.14,0,20.5,38.08,37.12,85.06,37.12s85.06-16.62,85.06-37.12c0-6.59-3.95-12.77-10.85-18.14,27.8-6.8,45.65-17.33,45.65-29.15Z" fill="currentColor"/>
</svg>
