<svg xmlns="http://www.w3.org/2000/svg" version="1.1" viewBox="0 0 284.32 181.61">
  <path d="M284.32,66.01c0-15.39-12.47-27.86-27.86-27.86,0-15.39-12.47-27.86-27.86-27.86-5.85,0-11.28,1.81-15.76,4.89-4.62-9.01-13.99-15.18-24.8-15.18-8.09,0-15.38,3.45-20.47,8.96-7.69-5.74-16.3-8.96-25.41-8.96s-17.64,3.19-25.3,8.88c-5.09-5.46-12.34-8.88-20.39-8.88-10.86,0-20.26,6.21-24.85,15.27-4.51-3.14-9.99-4.99-15.9-4.99-15.39,0-27.86,12.47-27.86,27.86-15.39,0-27.86,12.47-27.86,27.86,0,11.17,6.57,20.8,16.06,25.24-2.02,3.86-3.17,8.25-3.17,12.91,0,15.39,12.47,27.86,27.86,27.86,2.79,0,5.48-.41,8.02-1.18,3.12,11.98,14.01,20.83,26.96,20.83,7.36,0,14.05-2.86,19.03-7.52,10.65,22.7,27.91,37.46,47.4,37.46s37.27-15.2,47.87-38.46c5.07,5.25,12.17,8.53,20.05,8.53,12.54,0,23.14-8.29,26.64-19.68.41.02.81.03,1.22.03,15.39,0,27.86-12.47,27.86-27.86,0-3.98-.84-7.75-2.34-11.18,12-3.11,20.86-14,20.86-26.97ZM75.73,95.95c-2.79,0-5.48.41-8.02,1.18-2.1-8.08-7.74-14.73-15.16-18.21,2.02-3.86,3.17-8.25,3.17-12.91,10.86,0,20.25-6.21,24.85-15.27,2.38,1.66,5.03,2.95,7.87,3.81-3.12,11.11-4.86,23.37-4.86,36.26,0,2.12.05,4.23.14,6.31-2.53-.76-5.22-1.17-8-1.17ZM200.58,97.62c.11-2.25.16-4.52.16-6.81,0-12.87-1.73-25.12-4.85-36.21,2.85-.84,5.51-2.11,7.91-3.76,4.62,9.01,13.99,15.18,24.8,15.18,0,3.98.84,7.75,2.34,11.18-9.36,2.42-16.81,9.6-19.64,18.79-.41-.02-.81-.03-1.22-.03-3.34,0-6.54.59-9.51,1.67Z" fill="currentColor" />
</svg>
