<svg xmlns="http://www.w3.org/2000/svg" version="1.1" viewBox="0 0 231.41 181.61">
      <path d="M228.89,10.49c-7.69-13.33-30.68-14.46-51.33-2.53-8.26,4.77-14.89,10.9-19.39,17.4-8.37-14.31-23.88-23.92-41.65-23.92-19.14,0-35.68,11.15-43.47,27.31-2.42-3.81-5.38-7.53-8.86-11C47.32.88,24.82-3.98,13.94,6.9c-9.81,9.81-6.82,29.07,6.23,45.13C3.44,64.16-4.41,81.97,2.52,93.97c3.78,6.55,11.27,10.15,20.35,10.7-1.84,4.8-2.83,9.83-2.83,15,0,34.37,43.19,62.24,96.47,62.24s96.47-27.86,96.47-62.24c0-6.01-1.32-11.81-3.78-17.31,3.16-.93,5.97-2.52,8.26-4.81,9.81-9.81,6.82-29.07-6.23-45.13,16.73-12.13,24.58-29.94,17.65-41.94Z" fill="currentColor"/>
</svg>
