<svg xmlns="http://www.w3.org/2000/svg" version="1.1" viewBox="0 0 249.94 181.61">
      <path d="M249.94,45.42C249.94,20.35,229.62.03,204.55.03c-11.89,0-22.71,4.58-30.8,12.06C155.39,1.7,136.54-2.32,120.7,1.39,107.07,0,91.65,3.5,76.37,11.24,68.39,4.27,57.95.03,46.51.03,21.45.03,1.12,20.35,1.12,45.42c0,11.89,4.58,22.71,12.06,30.8-18.73,37.13-17.86,75.5,4.87,93.7,25.67,20.57,70.39,8.33,104.71-26.89,32.67,35.53,76,49,102.16,29.78,23.35-17.15,25.92-55.16,9.04-92.85,9.77-8.33,15.97-20.71,15.97-34.55Z" fill="currentColor"/>
</svg>
