<svg xmlns="http://www.w3.org/2000/svg" version="1.1" viewBox="0 0 330.02 181.61">
  <path d="M330.02,49.24V.18h-96.1v.51C231.93.24,229.87,0,227.76,0c-14.31,0-26.09,10.79-27.67,24.67-.06,0-.12,0-.19,0-.08,0-.15,0-.23,0C197.62,10.81,182.52.03,164.19.03c-16.65,0-30.64,8.89-34.6,20.92-.08-.02-.16-.03-.24-.04C126.25,8.9,115.35.03,102.37.03c-2.16,0-4.26.25-6.27.72V.18H0v49.06h84.48c1.67,1.41,3.52,2.61,5.49,3.6h-1.49s69.13,125,69.13,125c3.45,5.19,12.08,5.19,15.53-1.04l69.13-124.99h-.28c1.28-.76,2.49-1.62,3.62-2.57h84.4Z" fill="currentColor"/>
</svg>
