<svg xmlns="http://www.w3.org/2000/svg" version="1.1" viewBox="0 0 285.87 181.61">
      <path d="M258.01,49.91c-9.78,0-18.37,7.81-23.34,19.63-3.96-9.41-10.22-16.28-17.55-18.68V.57H75.9v49.34c-10.24,0-19.18,8.56-24.02,21.32-4.84-12.75-13.78-21.32-24.02-21.32C12.47,49.91,0,69.25,0,93.1s12.47,43.19,27.86,43.19c10.24,0,19.18-8.56,24.02-21.32,4.84,12.75,13.78,21.32,24.02,21.32v44.75h141.21v-45.7c7.33-2.4,13.59-9.27,17.55-18.68,4.97,11.81,13.57,19.63,23.34,19.63,15.39,0,27.86-19.34,27.86-43.19s-12.47-43.19-27.86-43.19Z" fill="currentColor"/>
</svg>
