<svg xmlns="http://www.w3.org/2000/svg" version="1.1" viewBox="0 0 268.61 249.53">
      <ellipse class="cls-1" cx="101.97" cy="43.88" rx="43.24" ry="27.89" transform="translate(19.2 117.86) rotate(-65.08)" fill="currentColor"/>
      <ellipse class="cls-1" cx="167.88" cy="43.88" rx="27.89" ry="43.24" transform="translate(-2.86 74.84) rotate(-24.92)" fill="currentColor"/>
      <ellipse class="cls-1" cx="227.31" cy="101.66" rx="27.89" ry="43.24" transform="translate(-21.67 105.26) rotate(-24.92)" fill="currentColor"/>
      <ellipse class="cls-1" cx="167.54" cy="124.14" rx="27.89" ry="43.24" transform="translate(-36.71 82.17) rotate(-24.92)" fill="currentColor"/>
      <ellipse class="cls-1" cx="235.97" cy="186.06" rx="27.89" ry="43.24" transform="translate(-56.43 116.77) rotate(-24.92)" fill="currentColor"/>
      <ellipse class="cls-1" cx="167.73" cy="205.65" rx="27.89" ry="43.24" transform="translate(-71.04 89.84) rotate(-24.92)" fill="currentColor"/>
      <ellipse class="cls-1" cx="101.77" cy="205.65" rx="43.24" ry="27.89" transform="translate(-127.61 211.27) rotate(-65.08)" fill="currentColor"/>
      <ellipse class="cls-1" cx="41.23" cy="102.81" rx="43.24" ry="27.89" transform="translate(-69.39 96.87) rotate(-65.08)" fill="currentColor"/>
      <ellipse class="cls-1" cx="101.77" cy="124.14" rx="43.24" ry="27.89" transform="translate(-53.7 164.11) rotate(-65.08)" fill="currentColor"/>
      <ellipse class="cls-1" cx="32.57" cy="187.21" rx="43.24" ry="27.89" transform="translate(-150.93 137.86) rotate(-65.08)" fill="currentColor"/>
</svg>
