<svg xmlns="http://www.w3.org/2000/svg" version="1.1" viewBox="0 0 171.92 250">
      <path d="M403.32,80.92L294.17,1.09c-2.7-1.98-9.46-1.98-12.16,0l-109.14,79.83c-2.7,1.98.68,4.45,6.08,4.45h55.24v164.63h107.8V85.37h55.24c5.41,0,8.78-2.47,6.08-4.45Z" fill="currentColor"/>
      <path d="M166.83,122.25C156.4,57.11,132.95,6.48,111.87.55V-.16h-49.68v.05C40.38,1.74,15.42,54.22,4.81,122.53c-8.55,55.06-5.31,104.6,6.62,127.63h37.57c14.96-19.12,29.04-56.72,36.86-102.07,8.01,45.41,22.29,83.01,37.37,102.07h37.46c11.92-23.01,14.98-72.72,6.15-127.9Z" fill="currentColor"/>
</svg>
