<svg xmlns="http://www.w3.org/2000/svg" version="1.1" viewBox="0 0 429.24 250">
      <path d="M392.78,176.76c-2.82,0-5.56.33-8.2.94,5.57-6.4,8.95-14.76,8.95-23.91,0-20.14-16.32-36.46-36.46-36.46-1.82,0-3.61.14-5.36.4,4.31-5.99,6.86-13.33,6.86-21.27,0-20.14-16.32-36.46-36.46-36.46-2.66,0-5.25.29-7.75.83,5.64-6.42,9.06-14.83,9.06-24.04,0-20.14-16.32-36.46-36.46-36.46s-36.46,16.32-36.46,36.46c0,9.4,3.56,17.97,9.4,24.44-3-.8-6.15-1.23-9.4-1.23s-6.4.43-9.4,1.23c5.84-6.47,9.4-15.04,9.4-24.44C250.48,16.64,234.16.32,214.02.32s-36.46,16.32-36.46,36.46c0,9.4,3.56,17.97,9.4,24.44-3-.8-6.15-1.23-9.4-1.23s-6.4.43-9.4,1.23c5.84-6.47,9.4-15.04,9.4-24.44C177.56,16.64,161.23.32,141.09.32s-36.46,16.32-36.46,36.46c0,8.94,3.22,17.12,8.56,23.46-1.4-.16-2.82-.26-4.27-.26-20.14,0-36.46,16.32-36.46,36.46,0,8.07,2.63,15.52,7.06,21.56-2.29-.45-4.65-.69-7.06-.69-20.14,0-36.46,16.32-36.46,36.46,0,9.19,3.41,17.58,9.02,23.99-2.75-.66-5.61-1.02-8.56-1.02-20.14,0-36.46,16.32-36.46,36.46s16.32,36.46,36.46,36.46c17.89,0,32.76-12.89,35.86-29.88,3.1,16.99,17.97,29.88,35.86,29.88s32.31-12.49,35.72-29.09c3.41,16.6,18.1,29.09,35.72,29.09,15.8,0,29.26-10.06,34.32-24.12,5.06,14.06,18.51,24.12,34.32,24.12,20.14,0,36.46-16.32,36.46-36.46,0-9.39-3.55-17.95-9.38-24.41,3.22.93,6.61,1.44,10.13,1.44,2.82,0,5.56-.33,8.2-.94-5.57,6.4-8.95,14.76-8.95,23.91,0,20.14,16.32,36.46,36.46,36.46,17.79,0,32.6-12.75,35.81-29.6,3.21,16.86,18.02,29.6,35.81,29.6,20.14,0,36.46-16.32,36.46-36.46s-16.32-36.46-36.46-36.46ZM365.27,189.31c-4.14,4.76-7.07,10.6-8.3,17.05-1.23-6.47-4.18-12.33-8.34-17.11,2.71.64,5.53.99,8.44.99s5.56-.33,8.2-.94ZM327.46,132.51c-3.04,4.22-5.19,9.11-6.2,14.41-1.04-5.44-3.28-10.45-6.44-14.74,2.35.48,4.79.73,7.28.73,1.82,0,3.61-.14,5.36-.4ZM294.7,72.41c-4.2,4.78-7.17,10.67-8.41,17.18-1.27-6.69-4.36-12.73-8.75-17.58,3,.8,6.15,1.23,9.4,1.23,2.66,0,5.25-.29,7.75-.83ZM223.42,72.01c-5.84,6.47-9.4,15.04-9.4,24.44,0,8.25,2.74,15.85,7.36,21.96-2.83-.71-5.8-1.09-8.85-1.09-1.82,0-3.61.14-5.36.4,4.31-5.99,6.86-13.33,6.86-21.27,0-9.4-3.56-17.97-9.4-24.44,3,.8,6.15,1.23,9.4,1.23s6.4-.43,9.4-1.23ZM220.73,189.31c-2.93,3.37-5.26,7.28-6.8,11.57-1.45-4.03-3.59-7.73-6.28-10.97,1.6.21,3.22.33,4.88.33,2.82,0,5.56-.33,8.2-.94ZM182.92,132.51c-1.96,2.72-3.55,5.72-4.71,8.93-1.13-3.14-2.68-6.07-4.58-8.74,1.29.14,2.6.21,3.92.21,1.82,0,3.61-.14,5.36-.4ZM143.24,108.79c1.13,3.14,2.68,6.07,4.58,8.74-1.29-.14-2.6-.21-3.92-.21-1.82,0-3.61.14-5.36.4,1.96-2.72,3.55-5.72,4.71-8.93ZM143.89,190.25c2.82,0,5.56-.33,8.2-.94-4.03,4.64-6.92,10.29-8.2,16.54-1.28-6.25-4.17-11.9-8.2-16.54,2.64.61,5.38.94,8.2.94ZM150.5,72.01c-3.15,3.49-5.63,7.58-7.26,12.09-1.47-4.1-3.66-7.85-6.41-11.12,1.4.16,2.82.26,4.27.26,3.25,0,6.4-.43,9.4-1.23ZM114.29,132.51c-2.94,4.08-5.06,8.79-6.11,13.9-1.07-5.23-3.27-10.04-6.32-14.19,2.29.45,4.65.69,7.06.69,1.82,0,3.61-.14,5.36-.4ZM80.67,189.31c-4.2,4.83-7.15,10.77-8.34,17.33-1.2-6.6-4.18-12.57-8.42-17.41,2.75.66,5.61,1.02,8.56,1.02s5.56-.33,8.2-.94ZM99.98,177.7c4.03-4.64,6.92-10.29,8.2-16.54,1.28,6.25,4.17,11.9,8.2,16.54-2.64-.61-5.38-.94-8.2-.94s-5.56.33-8.2.94ZM171.41,177.7c2.93-3.37,5.26-7.28,6.8-11.57,1.45,4.03,3.59,7.73,6.28,10.97-1.6-.21-3.22-.33-4.88-.33-2.82,0-5.56.33-8.2.94ZM240.04,177.7c5.57-6.4,8.95-14.76,8.95-23.91,0-8.25-2.74-15.85-7.36-21.96,2.83.71,5.8,1.09,8.85,1.09,1.82,0,3.61-.14,5.36-.4-4.31,5.99-6.85,13.33-6.85,21.27,0,9.39,3.55,17.95,9.38,24.41-3.22-.93-6.61-1.44-10.13-1.44-2.82,0-5.56.33-8.2.94ZM280.09,117.72c3.04-4.22,5.19-9.11,6.2-14.41,1.04,5.44,3.28,10.45,6.44,14.74-2.35-.48-4.79-.73-7.28-.73-1.82,0-3.61.14-5.36.4ZM312.96,177.7c4.14-4.76,7.07-10.6,8.3-17.05,1.23,6.47,4.18,12.33,8.34,17.11-2.71-.64-5.53-.99-8.43-.99s-5.56.33-8.2.94Z" fill="currentColor"/>
</svg>
