<svg xmlns="http://www.w3.org/2000/svg" version="1.1" viewBox="0 0 232.35 250">
      <path d="M231.4,81.12L122.26,1.29c-2.7-1.98-9.46-1.98-12.16,0L.95,81.12c-2.7,1.98.68,4.45,6.08,4.45h55.24v164.63h107.8V85.57h55.24c5.41,0,8.78-2.47,6.08-4.45Z" fill="currentColor"/>
      <path d="M-5.09,122.45C-15.52,57.3-38.97,6.67-60.05.75V.04h-49.68v.05c-21.81,1.84-46.77,54.33-57.38,122.64-8.55,55.06-5.31,104.6,6.62,127.63h37.57c14.96-19.12,29.04-56.72,36.86-102.07,8.01,45.41,22.29,83.01,37.37,102.07H-11.24C.69,227.35,3.74,177.64-5.09,122.45Z" fill="currentColor"/>
</svg>
