<svg xmlns="http://www.w3.org/2000/svg" version="1.1" viewBox="0 0 293.6 250">
      <path d="M292.65,243.32l-68.61-80.6c-.92-1.09-2.4-1.73-3.97-1.73h43.94c3.37,0,5.31-3.52,3.32-6.02l-57.53-72.63c-.45-.57-1.06-.98-1.75-1.24v-.89h32.03c2.69,0,4.24-3.52,2.66-6.02L196.78,1.56C196.16.58,195.17,0,194.12,0h-98.17c-1.05,0-2.04.58-2.66,1.56l-45.96,72.63c-1.58,2.5-.03,6.02,2.66,6.02h32.31v.79c-.8.25-1.52.69-2.03,1.34l-57.53,72.63c-1.98,2.5-.04,6.02,3.33,6.02h47.47c-1.57,0-3.04.64-3.97,1.73L.95,243.32c-2.37,2.78-.05,6.68,3.97,6.68h283.77c4.01,0,6.33-3.9,3.97-6.68Z" fill="currentColor"/>
</svg>
