<svg xmlns="http://www.w3.org/2000/svg" version="1.1" viewBox="0 0 413.42 250">
      <path d="M382.27,115.89c-1.69,0-3.34.14-4.95.4,1.16-3.26,1.8-6.78,1.8-10.44,0-17.21-13.95-31.15-31.15-31.15-4.31,0-8.41.87-12.14,2.45,1.16-3.27,1.8-6.79,1.8-10.45,0-17.21-13.95-31.15-31.15-31.15-6.21,0-11.98,1.82-16.84,4.95,1.09-3.17,1.68-6.57,1.68-10.1,0-17.21-13.95-31.15-31.15-31.15-11.3,0-21.19,6.02-26.65,15.02-5.46-9-15.36-15.02-26.65-15.02s-21.19,6.02-26.65,15.02c-5.46-9-15.36-15.02-26.65-15.02-17.21,0-31.15,13.95-31.15,31.15,0,3.01.44,5.92,1.23,8.68-4.31-2.25-9.2-3.52-14.39-3.52-17.21,0-31.15,13.95-31.15,31.15,0,4.11.8,8.03,2.25,11.62-4.35-2.31-9.31-3.62-14.58-3.62-17.21,0-31.15,13.95-31.15,31.15,0,3.68.64,7.21,1.82,10.49-1.71-.29-3.46-.45-5.25-.45-17.21,0-31.15,13.95-31.15,31.15s13.95,31.15,31.15,31.15c1.2,0,2.38-.07,3.54-.21-.06.81-.11,1.64-.11,2.47,0,17.21,13.95,31.15,31.15,31.15,4.31,0,8.41-.87,12.14-2.45-1.16,3.27-1.8,6.79-1.8,10.45,0,17.21,13.95,31.15,31.15,31.15,9.47,0,17.94-4.23,23.65-10.89,5.71,6.66,14.19,10.89,23.65,10.89,10.97,0,20.6-5.67,26.15-14.24,5.55,8.56,15.19,14.24,26.15,14.24,10.04,0,18.96-4.75,24.65-12.12,5.7,7.37,14.62,12.12,24.65,12.12s18.44-4.48,24.15-11.48c5.71,7.01,14.41,11.48,24.15,11.48,17.21,0,31.15-13.95,31.15-31.15,0-4.11-.8-8.03-2.25-11.62,4.35,2.31,9.31,3.62,14.58,3.62,17.21,0,31.15-13.95,31.15-31.15,0-.82-.04-1.63-.1-2.43,1.07.11,2.16.17,3.26.17,17.21,0,31.15-13.95,31.15-31.15s-13.95-31.15-31.15-31.15Z" fill="currentColor"/>
</svg>
