<svg xmlns="http://www.w3.org/2000/svg" version="1.1" viewBox="0 0 149.62 95.45">
      <path class="cls-1" d="M7.95,36.75C7.95,16.87,20.51.75,36,.75s28.05,16.12,28.05,36H7.95Z" fill="currentColor"/>
      <path class="cls-1" d="M85.1,36.75c0-19.88,12.77-36,28.52-36s28.52,16.12,28.52,36h-57.03Z" fill="currentColor"/>
      <path class="cls-1" d="M2.63,64.77c0-19.88,15.79-36,35.26-36s35.26,16.12,35.26,36H2.63Z" fill="currentColor"/>
      <path class="cls-1" d="M79.95,64.77c0-19.88,15.26-36,34.09-36s34.09,16.12,34.09,36h-68.17Z" fill="currentColor"/>
      <path class="cls-1" d="M0,94.7c0-19.88,16.12-36,36-36s36,16.12,36,36H0Z" fill="currentColor"/>
      <path class="cls-1" d="M77.62,94.7c0-19.88,16.12-36,36-36s36,16.12,36,36h-72Z" fill="currentColor"/>
</svg>
