<svg xmlns="http://www.w3.org/2000/svg" version="1.1" viewBox="0 0 149.62 95.65">
        <path d="M60.02,36.85h4.03C64.05,16.97,51.49.85,36,.85S7.95,16.97,7.95,36.85h7.81c-8,6.6-13.13,16.7-13.13,28.02h13.36C6.35,71.33,0,82.32,0,94.8h72c0-12.48-6.35-23.47-15.99-29.93h17.14c0-11.32-5.12-21.42-13.13-28.02Z" fill="currentColor"/>
        <path d="M77.62,94.8h72c0-12.48-6.35-23.47-15.99-29.93h14.5c0-11.32-4.95-21.42-12.69-28.02h6.71c0-19.88-12.77-36-28.52-36s-28.52,16.12-28.52,36h7.54c-7.74,6.6-12.69,16.7-12.69,28.02h13.66c-9.64,6.46-15.99,17.45-15.99,29.93Z" fill="currentColor"/>
</svg>
