<svg xmlns="http://www.w3.org/2000/svg" version="1.1" viewBox="0 0 138.93 126.07">
      <path d="M127.14,57.45c2.28-3.89,3.59-8.4,3.59-13.23,0-14.48-11.74-26.23-26.23-26.23-4.21,0-8.19,1-11.72,2.77-3.84-9.72-13.31-16.59-24.39-16.59-11.93,0-21.99,7.97-25.17,18.87-3.67-1.95-7.85-3.06-12.3-3.06-14.48,0-26.23,11.74-26.23,26.23,0,5.04,1.42,9.74,3.89,13.74-5.27,4.8-8.58,11.71-8.58,19.4,0,14.48,11.74,26.23,26.23,26.23,7.16,0,13.64-2.87,18.38-7.52,3.46,16.18,13.29,27.86,24.89,27.86s21.41-11.66,24.88-27.81c4.73,4.62,11.19,7.47,18.33,7.47,14.48,0,26.23-11.74,26.23-26.23,0-9.15-4.69-17.2-11.79-21.89Z" fill="currentColor"/>
</svg>
