<svg xmlns="http://www.w3.org/2000/svg" version="1.1" viewBox="0 0 295.82 249.53">
      <path class="cls-1" d="M195.2-.24h-98.17c-1.05,0-2.04.58-2.66,1.56l-45.96,72.63c-1.58,2.5-.03,6.02,2.66,6.02h190.1c2.69,0,4.24-3.52,2.66-6.02L197.85,1.32c-.62-.98-1.61-1.56-2.66-1.56Z" fill="currentColor"/>
      <path class="cls-1" d="M207.55,80.55h-122.89c-1.31,0-2.55.58-3.33,1.56l-57.53,72.63c-1.98,2.5-.04,6.02,3.33,6.02h237.95c3.37,0,5.31-3.52,3.33-6.02l-57.53-72.63c-.77-.98-2.01-1.56-3.33-1.56Z" fill="currentColor"/>
      <path class="cls-1" d="M221.15,160.76H74.6c-1.57,0-3.04.64-3.97,1.73L2.02,243.08c-2.37,2.78-.05,6.68,3.97,6.68h283.77c4.01,0,6.33-3.9,3.97-6.68l-68.61-80.6c-.92-1.09-2.4-1.73-3.97-1.73Z" fill="currentColor"/>
</svg>
